<svg id="Layer_1" data-name="Layer 1" xmlns="http://www.w3.org/2000/svg" viewBox="0 0 120 36"><defs><style>.cls-1{fill:#202020;}</style></defs><path class="cls-1" d="M27.42,23.39l.28,1.28-3,6.26H18L30.83,5.07,43.65,30.93H37l-2.92-6,.21-1.49-3.44-7.89Zm-2.53-1.64h12l.39,4.48H24.47Z"/><path class="cls-1" d="M55.52,19a2,2,0,0,0-1.79-.77,3,3,0,0,0-1.46.35,2.37,2.37,0,0,0-1,1A3.29,3.29,0,0,0,51,21.2v9.73H45.67v-16H51v2.4a5.13,5.13,0,0,1,1.89-2.05,5.59,5.59,0,0,1,3-.73,5.39,5.39,0,0,1,4.35,1.6,6.73,6.73,0,0,1,1.35,4.48V30.93H56.06V21.2A3.77,3.77,0,0,0,55.52,19Z"/><path class="cls-1" d="M96,19a2,2,0,0,0-1.79-.77,3,3,0,0,0-1.46.35,2.43,2.43,0,0,0-1,1,3.41,3.41,0,0,0-.35,1.6v9.73H86.11v-16h5.28v2.4a5.23,5.23,0,0,1,1.9-2.05,5.59,5.59,0,0,1,3-.73,5.37,5.37,0,0,1,4.34,1.6A6.68,6.68,0,0,1,102,20.64V30.93H96.5V21.2A3.77,3.77,0,0,0,96,19Z"/></svg>